<svg xmlns="http://www.w3.org/2000/svg" xmlns:xlink="http://www.w3.org/1999/xlink" width="383" zoomAndPan="magnify" viewBox="0 0 287.25 200.249992" height="267" preserveAspectRatio="xMidYMid meet" version="1.0"><defs><g/><clipPath id="82b9f5ec33"><path d="M 65.695312 46.503906 L 110.054688 46.503906 L 110.054688 143.089844 L 65.695312 143.089844 Z M 65.695312 46.503906 " clip-rule="nonzero"/></clipPath><clipPath id="441fa4f143"><path d="M 87.804688 42.410156 L 199.9375 42.410156 L 199.9375 145.027344 L 87.804688 145.027344 Z M 87.804688 42.410156 " clip-rule="nonzero"/></clipPath><clipPath id="7dae5e50ca"><path d="M 48 123 L 98 123 L 98 171 L 48 171 Z M 48 123 " clip-rule="nonzero"/></clipPath><clipPath id="0ed4b50374"><path d="M 77.617188 123.09375 L 97.503906 146.902344 L 68.773438 170.898438 L 48.886719 147.089844 Z M 77.617188 123.09375 " clip-rule="nonzero"/></clipPath><clipPath id="979482943e"><path d="M 92.097656 0 L 196 0 L 196 142.78125 L 92.097656 142.78125 Z M 92.097656 0 " clip-rule="nonzero"/></clipPath><clipPath id="22f212f4c2"><path d="M 93 78 L 169 78 L 169 155 L 93 155 Z M 93 78 " clip-rule="nonzero"/></clipPath><clipPath id="9e1ee99295"><path d="M 127.957031 168.976562 L 78.796875 119.816406 L 144.34375 54.269531 L 193.503906 103.429688 Z M 127.957031 168.976562 " clip-rule="nonzero"/></clipPath><clipPath id="1d310bb531"><path d="M 127.957031 168.976562 L 78.796875 119.816406 L 144.34375 54.269531 L 193.503906 103.429688 Z M 127.957031 168.976562 " clip-rule="nonzero"/></clipPath><clipPath id="9a619ee083"><path d="M 73 92 L 155 92 L 155 175 L 73 175 Z M 73 92 " clip-rule="nonzero"/></clipPath><clipPath id="2c2e0318d4"><path d="M 73.226562 153.511719 L 133.742188 92.992188 L 154.777344 114.027344 L 94.257812 174.542969 Z M 73.226562 153.511719 " clip-rule="nonzero"/></clipPath><clipPath id="221cf4e3c0"><path d="M 43 33 L 101 33 L 101 144 L 43 144 Z M 43 33 " clip-rule="nonzero"/></clipPath><clipPath id="181bf32f27"><path d="M 64.683594 33.667969 L 100.289062 41.117188 L 78.949219 143.089844 L 43.34375 135.640625 Z M 64.683594 33.667969 " clip-rule="nonzero"/></clipPath><clipPath id="8b5e708fc1"><path d="M 122 146 L 158 146 L 158 199.503906 L 122 199.503906 Z M 122 146 " clip-rule="nonzero"/></clipPath></defs><g clip-path="url(#82b9f5ec33)"><path fill="#c5a959" d="M 65.695312 46.503906 L 110.054688 46.503906 L 110.054688 143.015625 L 65.695312 143.015625 Z M 65.695312 46.503906 " fill-opacity="1" fill-rule="nonzero"/></g><g clip-path="url(#441fa4f143)"><path fill="#fff9f3" d="M 143.964844 -9.710938 C 127.9375 -9.710938 114.917969 3.3125 114.917969 19.335938 L 114.917969 32.894531 L 122.664062 32.894531 L 122.664062 19.335938 C 122.664062 7.46875 132.097656 -1.964844 143.964844 -1.964844 C 155.832031 -1.964844 165.265625 7.46875 165.265625 19.335938 L 165.265625 32.894531 L 173.011719 32.894531 L 173.011719 19.335938 C 173.011719 3.3125 159.988281 -9.710938 143.964844 -9.710938 Z M 97.488281 40.640625 L 87.804688 145.210938 L 200.125 145.210938 L 190.441406 40.640625 Z M 97.488281 40.640625 " fill-opacity="1" fill-rule="nonzero"/></g><g clip-path="url(#7dae5e50ca)"><g clip-path="url(#0ed4b50374)"><path fill="#fff9f3" d="M 77.617188 123.09375 L 97.503906 146.902344 L 68.765625 170.90625 L 48.878906 147.097656 Z M 77.617188 123.09375 " fill-opacity="1" fill-rule="nonzero"/></g></g><g clip-path="url(#979482943e)"><path fill="#25325b" d="M 143.964844 0.00390625 C 129.164062 0.00390625 117.136719 12.03125 117.136719 26.832031 L 117.136719 39.351562 L 124.289062 39.351562 L 124.289062 26.832031 C 124.289062 15.871094 133.003906 7.15625 143.964844 7.15625 C 154.925781 7.15625 163.636719 15.871094 163.636719 26.832031 L 163.636719 39.351562 L 170.792969 39.351562 L 170.792969 26.832031 C 170.792969 12.03125 158.765625 0.00390625 143.964844 0.00390625 Z M 101.039062 46.503906 L 92.097656 143.082031 L 195.832031 143.082031 L 186.886719 46.503906 Z M 101.039062 46.503906 " fill-opacity="1" fill-rule="nonzero"/></g><g clip-path="url(#22f212f4c2)"><g clip-path="url(#9e1ee99295)"><g clip-path="url(#1d310bb531)"><path fill="#fdf8f5" d="M 126.789062 100.671875 L 93.253906 134.207031 L 113.550781 154.503906 L 147.085938 120.96875 L 161.527344 135.410156 L 168.890625 78.867188 L 112.351562 86.234375 Z M 126.789062 100.671875 " fill-opacity="1" fill-rule="nonzero"/></g></g></g><g clip-path="url(#9a619ee083)"><g clip-path="url(#2c2e0318d4)"><path fill="#fff9f3" d="M 73.226562 153.511719 L 133.777344 92.960938 L 154.808594 113.992188 L 94.257812 174.542969 Z M 73.226562 153.511719 " fill-opacity="1" fill-rule="nonzero"/></g></g><g clip-path="url(#221cf4e3c0)"><g clip-path="url(#181bf32f27)"><path fill="#fff9f3" d="M 64.683594 33.667969 L 100.289062 41.117188 L 78.957031 143.066406 L 43.347656 135.617188 Z M 64.683594 33.667969 " fill-opacity="1" fill-rule="nonzero"/></g></g><g fill="#25325b" fill-opacity="1"><g transform="translate(2.615896, 186.854245)"><g><path d="M 19.859375 0.703125 C 17.703125 0.703125 15.503906 -0.25 13.265625 -2.15625 L 12.84375 0 L 5.078125 0 L 12.40625 -34.3125 L 20.390625 -35.390625 L 13.921875 -5.125 C 14.929688 -4.40625 15.957031 -4.046875 17 -4.046875 C 19.050781 -4.046875 20.859375 -5.234375 22.421875 -7.609375 C 23.984375 -9.984375 25.195312 -13.003906 26.0625 -16.671875 C 26.925781 -20.335938 27.359375 -24.039062 27.359375 -27.78125 C 27.359375 -31.3125 26.664062 -33.894531 25.28125 -35.53125 C 23.894531 -37.164062 21.960938 -37.984375 19.484375 -37.984375 C 16.785156 -37.984375 14.363281 -37.453125 12.21875 -36.390625 C 10.082031 -35.328125 8.398438 -33.804688 7.171875 -31.828125 C 5.953125 -29.847656 5.34375 -27.53125 5.34375 -24.875 C 5.34375 -23.539062 5.46875 -22.613281 5.71875 -22.09375 C 5.96875 -21.570312 6.09375 -21.273438 6.09375 -21.203125 C 4.226562 -21.203125 2.800781 -21.597656 1.8125 -22.390625 C 0.820312 -23.179688 0.328125 -24.457031 0.328125 -26.21875 C 0.328125 -28.664062 1.242188 -30.984375 3.078125 -33.171875 C 4.910156 -35.367188 7.363281 -37.132812 10.4375 -38.46875 C 13.507812 -39.800781 16.828125 -40.46875 20.390625 -40.46875 C 25.316406 -40.46875 28.945312 -39.007812 31.28125 -36.09375 C 33.625 -33.175781 34.796875 -29.453125 34.796875 -24.921875 C 34.796875 -20.828125 34.101562 -16.789062 32.71875 -12.8125 C 31.332031 -8.84375 29.488281 -5.597656 27.1875 -3.078125 C 24.882812 -0.554688 22.441406 0.703125 19.859375 0.703125 Z M 19.859375 0.703125 "/></g></g></g><g fill="#25325b" fill-opacity="1"><g transform="translate(38.38705, 186.854245)"><g><path d="M 9.015625 -29.890625 C 7.828125 -29.890625 6.816406 -30.300781 5.984375 -31.125 C 5.160156 -31.957031 4.75 -32.96875 4.75 -34.15625 C 4.75 -35.34375 5.160156 -36.359375 5.984375 -37.203125 C 6.816406 -38.046875 7.828125 -38.46875 9.015625 -38.46875 C 10.203125 -38.46875 11.21875 -38.046875 12.0625 -37.203125 C 12.90625 -36.359375 13.328125 -35.34375 13.328125 -34.15625 C 13.328125 -32.96875 12.90625 -31.957031 12.0625 -31.125 C 11.21875 -30.300781 10.203125 -29.890625 9.015625 -29.890625 Z M 5.34375 0.328125 C 3.613281 0.328125 2.21875 -0.207031 1.15625 -1.28125 C 0.09375 -2.363281 -0.4375 -3.988281 -0.4375 -6.15625 C -0.4375 -7.050781 -0.289062 -8.21875 0 -9.65625 L 3.671875 -26.984375 L 11.4375 -26.984375 L 7.546875 -8.625 C 7.410156 -8.09375 7.34375 -7.519531 7.34375 -6.90625 C 7.34375 -6.1875 7.507812 -5.671875 7.84375 -5.359375 C 8.1875 -5.054688 8.753906 -4.90625 9.546875 -4.90625 C 10.585938 -4.90625 11.554688 -5.34375 12.453125 -6.21875 C 13.359375 -7.101562 14.007812 -8.25 14.40625 -9.65625 L 16.671875 -9.65625 C 15.335938 -5.769531 13.628906 -3.132812 11.546875 -1.75 C 9.460938 -0.363281 7.394531 0.328125 5.34375 0.328125 Z M 5.34375 0.328125 "/></g></g></g><g fill="#25325b" fill-opacity="1"><g transform="translate(52.792623, 186.854245)"><g><path d="M 32.796875 0.328125 C 30.609375 0.328125 29 -0.253906 27.96875 -1.421875 C 26.945312 -2.597656 26.4375 -4.046875 26.4375 -5.765625 C 26.4375 -6.523438 26.523438 -7.378906 26.703125 -8.328125 C 26.890625 -9.285156 27.078125 -10.210938 27.265625 -11.109375 C 27.460938 -12.015625 27.597656 -12.59375 27.671875 -12.84375 C 27.960938 -14.101562 28.234375 -15.34375 28.484375 -16.5625 C 28.734375 -17.78125 28.859375 -18.769531 28.859375 -19.53125 C 28.859375 -21.363281 28.210938 -22.28125 26.921875 -22.28125 C 25.984375 -22.28125 25.15625 -21.820312 24.4375 -20.90625 C 23.71875 -19.988281 23.144531 -18.789062 22.71875 -17.3125 L 19.046875 0 L 11.28125 0 L 15.21875 -18.609375 C 15.320312 -19.046875 15.375 -19.5 15.375 -19.96875 C 15.375 -21.550781 14.835938 -22.34375 13.765625 -22.34375 C 12.753906 -22.34375 11.878906 -21.878906 11.140625 -20.953125 C 10.398438 -20.035156 9.816406 -18.820312 9.390625 -17.3125 L 5.71875 0 L -2.046875 0 L 3.671875 -26.984375 L 11.4375 -26.984375 L 10.84375 -24.171875 C 12.675781 -26.222656 14.867188 -27.25 17.421875 -27.25 C 20.585938 -27.25 22.441406 -25.703125 22.984375 -22.609375 C 24.960938 -25.660156 27.460938 -27.1875 30.484375 -27.1875 C 32.316406 -27.1875 33.769531 -26.679688 34.84375 -25.671875 C 35.925781 -24.671875 36.46875 -23.144531 36.46875 -21.09375 C 36.46875 -20.050781 36.34375 -18.890625 36.09375 -17.609375 C 35.84375 -16.335938 35.484375 -14.785156 35.015625 -12.953125 C 34.722656 -11.835938 34.457031 -10.75 34.21875 -9.6875 C 33.988281 -8.625 33.875 -7.785156 33.875 -7.171875 C 33.875 -6.453125 34.035156 -5.894531 34.359375 -5.5 C 34.691406 -5.101562 35.253906 -4.90625 36.046875 -4.90625 C 37.117188 -4.90625 37.976562 -5.289062 38.625 -6.0625 C 39.28125 -6.84375 39.929688 -8.039062 40.578125 -9.65625 L 42.84375 -9.65625 C 41.507812 -5.695312 39.96875 -3.039062 38.21875 -1.6875 C 36.476562 -0.34375 34.671875 0.328125 32.796875 0.328125 Z M 32.796875 0.328125 "/></g></g></g><g fill="#25325b" fill-opacity="1"><g transform="translate(93.365639, 186.854245)"><g><path d="M 6.46875 0.328125 C 4.425781 0.328125 2.71875 -0.375 1.34375 -1.78125 C -0.0195312 -3.1875 -0.703125 -5.378906 -0.703125 -8.359375 C -0.703125 -11.023438 -0.171875 -13.820312 0.890625 -16.75 C 1.953125 -19.6875 3.535156 -22.171875 5.640625 -24.203125 C 7.742188 -26.234375 10.253906 -27.25 13.171875 -27.25 C 14.640625 -27.25 15.734375 -26.992188 16.453125 -26.484375 C 17.171875 -25.984375 17.53125 -25.320312 17.53125 -24.5 L 17.53125 -24.109375 L 18.125 -26.984375 L 25.890625 -26.984375 L 22.015625 -8.625 C 21.867188 -8.09375 21.796875 -7.519531 21.796875 -6.90625 C 21.796875 -5.363281 22.535156 -4.59375 24.015625 -4.59375 C 25.015625 -4.59375 25.882812 -5.054688 26.625 -5.984375 C 27.363281 -6.921875 27.945312 -8.144531 28.375 -9.65625 L 30.640625 -9.65625 C 29.316406 -5.769531 27.671875 -3.132812 25.703125 -1.75 C 23.742188 -0.363281 21.773438 0.328125 19.796875 0.328125 C 18.285156 0.328125 17.070312 -0.09375 16.15625 -0.9375 C 15.238281 -1.789062 14.691406 -3.023438 14.515625 -4.640625 C 13.472656 -3.160156 12.3125 -1.960938 11.03125 -1.046875 C 9.757812 -0.128906 8.238281 0.328125 6.46875 0.328125 Z M 9.984375 -4.90625 C 10.878906 -4.90625 11.765625 -5.328125 12.640625 -6.171875 C 13.523438 -7.023438 14.128906 -8.1875 14.453125 -9.65625 L 17.046875 -21.84375 C 17.046875 -22.3125 16.863281 -22.769531 16.5 -23.21875 C 16.144531 -23.675781 15.59375 -23.90625 14.84375 -23.90625 C 13.394531 -23.90625 12.09375 -23.066406 10.9375 -21.390625 C 9.789062 -19.722656 8.894531 -17.707031 8.25 -15.34375 C 7.601562 -12.988281 7.28125 -10.914062 7.28125 -9.125 C 7.28125 -7.320312 7.539062 -6.164062 8.0625 -5.65625 C 8.582031 -5.15625 9.222656 -4.90625 9.984375 -4.90625 Z M 9.984375 -4.90625 "/></g></g></g><g clip-path="url(#8b5e708fc1)"><g fill="#25325b" fill-opacity="1"><g transform="translate(121.745162, 186.854245)"><g><path d="M 30.15625 13.484375 C 28.539062 13.484375 26.945312 13.023438 25.375 12.109375 C 23.8125 11.191406 21.828125 9.78125 19.421875 7.875 C 17.617188 6.4375 16.078125 5.273438 14.796875 4.390625 C 13.523438 3.515625 12.144531 2.769531 10.65625 2.15625 C 9.164062 1.539062 7.644531 1.234375 6.09375 1.234375 C 5.550781 1.234375 5.140625 1.253906 4.859375 1.296875 L 12.890625 -36.09375 C 10.484375 -35.125 8.625 -33.640625 7.3125 -31.640625 C 6 -29.648438 5.34375 -27.210938 5.34375 -24.328125 C 5.34375 -23.003906 5.46875 -22.078125 5.71875 -21.546875 C 5.96875 -21.023438 6.09375 -20.734375 6.09375 -20.671875 C 4.15625 -20.671875 2.707031 -21.070312 1.75 -21.875 C 0.800781 -22.6875 0.328125 -24.023438 0.328125 -25.890625 C 0.328125 -28.191406 1.269531 -30.429688 3.15625 -32.609375 C 5.039062 -34.785156 7.457031 -36.546875 10.40625 -37.890625 C 13.363281 -39.242188 16.316406 -39.921875 19.265625 -39.921875 C 19.765625 -39.921875 20.484375 -39.882812 21.421875 -39.8125 L 13.109375 -1.078125 C 14.117188 -0.828125 15.148438 -0.460938 16.203125 0.015625 C 17.265625 0.503906 18.554688 1.164062 20.078125 2 C 22.410156 3.257812 24.40625 4.21875 26.0625 4.875 C 27.71875 5.539062 29.441406 5.875 31.234375 5.875 C 32.859375 5.875 34.367188 5.585938 35.765625 5.015625 C 35.484375 7.640625 34.847656 9.707031 33.859375 11.21875 C 32.867188 12.726562 31.632812 13.484375 30.15625 13.484375 Z M 30.15625 13.484375 "/></g></g></g></g><g fill="#25325b" fill-opacity="1"><g transform="translate(142.193528, 186.854245)"><g><path d="M 6.46875 0.328125 C 4.425781 0.328125 2.71875 -0.375 1.34375 -1.78125 C -0.0195312 -3.1875 -0.703125 -5.378906 -0.703125 -8.359375 C -0.703125 -11.023438 -0.171875 -13.820312 0.890625 -16.75 C 1.953125 -19.6875 3.535156 -22.171875 5.640625 -24.203125 C 7.742188 -26.234375 10.253906 -27.25 13.171875 -27.25 C 14.640625 -27.25 15.734375 -26.992188 16.453125 -26.484375 C 17.171875 -25.984375 17.53125 -25.320312 17.53125 -24.5 L 17.53125 -24.109375 L 18.125 -26.984375 L 25.890625 -26.984375 L 22.015625 -8.625 C 21.867188 -8.09375 21.796875 -7.519531 21.796875 -6.90625 C 21.796875 -5.363281 22.535156 -4.59375 24.015625 -4.59375 C 25.015625 -4.59375 25.882812 -5.054688 26.625 -5.984375 C 27.363281 -6.921875 27.945312 -8.144531 28.375 -9.65625 L 30.640625 -9.65625 C 29.316406 -5.769531 27.671875 -3.132812 25.703125 -1.75 C 23.742188 -0.363281 21.773438 0.328125 19.796875 0.328125 C 18.285156 0.328125 17.070312 -0.09375 16.15625 -0.9375 C 15.238281 -1.789062 14.691406 -3.023438 14.515625 -4.640625 C 13.472656 -3.160156 12.3125 -1.960938 11.03125 -1.046875 C 9.757812 -0.128906 8.238281 0.328125 6.46875 0.328125 Z M 9.984375 -4.90625 C 10.878906 -4.90625 11.765625 -5.328125 12.640625 -6.171875 C 13.523438 -7.023438 14.128906 -8.1875 14.453125 -9.65625 L 17.046875 -21.84375 C 17.046875 -22.3125 16.863281 -22.769531 16.5 -23.21875 C 16.144531 -23.675781 15.59375 -23.90625 14.84375 -23.90625 C 13.394531 -23.90625 12.09375 -23.066406 10.9375 -21.390625 C 9.789062 -19.722656 8.894531 -17.707031 8.25 -15.34375 C 7.601562 -12.988281 7.28125 -10.914062 7.28125 -9.125 C 7.28125 -7.320312 7.539062 -6.164062 8.0625 -5.65625 C 8.582031 -5.15625 9.222656 -4.90625 9.984375 -4.90625 Z M 9.984375 -4.90625 "/></g></g></g><g fill="#25325b" fill-opacity="1"><g transform="translate(170.57305, 186.854245)"><g><path d="M 32.796875 0.328125 C 30.609375 0.328125 29 -0.253906 27.96875 -1.421875 C 26.945312 -2.597656 26.4375 -4.046875 26.4375 -5.765625 C 26.4375 -6.523438 26.523438 -7.378906 26.703125 -8.328125 C 26.890625 -9.285156 27.078125 -10.210938 27.265625 -11.109375 C 27.460938 -12.015625 27.597656 -12.59375 27.671875 -12.84375 C 27.960938 -14.101562 28.234375 -15.34375 28.484375 -16.5625 C 28.734375 -17.78125 28.859375 -18.769531 28.859375 -19.53125 C 28.859375 -21.363281 28.210938 -22.28125 26.921875 -22.28125 C 25.984375 -22.28125 25.15625 -21.820312 24.4375 -20.90625 C 23.71875 -19.988281 23.144531 -18.789062 22.71875 -17.3125 L 19.046875 0 L 11.28125 0 L 15.21875 -18.609375 C 15.320312 -19.046875 15.375 -19.5 15.375 -19.96875 C 15.375 -21.550781 14.835938 -22.34375 13.765625 -22.34375 C 12.753906 -22.34375 11.878906 -21.878906 11.140625 -20.953125 C 10.398438 -20.035156 9.816406 -18.820312 9.390625 -17.3125 L 5.71875 0 L -2.046875 0 L 3.671875 -26.984375 L 11.4375 -26.984375 L 10.84375 -24.171875 C 12.675781 -26.222656 14.867188 -27.25 17.421875 -27.25 C 20.585938 -27.25 22.441406 -25.703125 22.984375 -22.609375 C 24.960938 -25.660156 27.460938 -27.1875 30.484375 -27.1875 C 32.316406 -27.1875 33.769531 -26.679688 34.84375 -25.671875 C 35.925781 -24.671875 36.46875 -23.144531 36.46875 -21.09375 C 36.46875 -20.050781 36.34375 -18.890625 36.09375 -17.609375 C 35.84375 -16.335938 35.484375 -14.785156 35.015625 -12.953125 C 34.722656 -11.835938 34.457031 -10.75 34.21875 -9.6875 C 33.988281 -8.625 33.875 -7.785156 33.875 -7.171875 C 33.875 -6.453125 34.035156 -5.894531 34.359375 -5.5 C 34.691406 -5.101562 35.253906 -4.90625 36.046875 -4.90625 C 37.117188 -4.90625 37.976562 -5.289062 38.625 -6.0625 C 39.28125 -6.84375 39.929688 -8.039062 40.578125 -9.65625 L 42.84375 -9.65625 C 41.507812 -5.695312 39.96875 -3.039062 38.21875 -1.6875 C 36.476562 -0.34375 34.671875 0.328125 32.796875 0.328125 Z M 32.796875 0.328125 "/></g></g></g><g fill="#25325b" fill-opacity="1"><g transform="translate(211.146054, 186.854245)"><g><path d="M 7.875 0.21875 C 5.21875 0.21875 3.113281 -0.460938 1.5625 -1.828125 C 0.0195312 -3.203125 -0.75 -5.363281 -0.75 -8.3125 C -0.75 -10.757812 -0.25 -13.472656 0.75 -16.453125 C 1.757812 -19.441406 3.378906 -22.023438 5.609375 -24.203125 C 7.835938 -26.378906 10.644531 -27.46875 14.03125 -27.46875 C 18.632812 -27.46875 20.9375 -24.585938 20.9375 -18.828125 L 20.9375 -18.78125 C 21.039062 -18.738281 21.238281 -18.71875 21.53125 -18.71875 C 22.71875 -18.71875 24.082031 -19.03125 25.625 -19.65625 C 27.175781 -20.289062 28.582031 -21.054688 29.84375 -21.953125 L 30.328125 -20.5 C 29.273438 -19.382812 27.910156 -18.441406 26.234375 -17.671875 C 24.566406 -16.898438 22.742188 -16.351562 20.765625 -16.03125 C 20.484375 -12.75 19.75 -9.882812 18.5625 -7.4375 C 17.375 -5 15.84375 -3.113281 13.96875 -1.78125 C 12.101562 -0.445312 10.070312 0.21875 7.875 0.21875 Z M 10.03125 -4.640625 C 10.894531 -4.640625 11.757812 -5.132812 12.625 -6.125 C 13.488281 -7.113281 14.242188 -8.460938 14.890625 -10.171875 C 15.535156 -11.878906 16.003906 -13.773438 16.296875 -15.859375 C 15.328125 -16.078125 14.84375 -16.832031 14.84375 -18.125 C 14.84375 -19.601562 15.398438 -20.578125 16.515625 -21.046875 C 16.441406 -22.234375 16.257812 -23.050781 15.96875 -23.5 C 15.675781 -23.945312 15.171875 -24.171875 14.453125 -24.171875 C 13.265625 -24.171875 12.113281 -23.304688 11 -21.578125 C 9.882812 -19.847656 8.984375 -17.78125 8.296875 -15.375 C 7.617188 -12.96875 7.28125 -10.847656 7.28125 -9.015625 C 7.28125 -7.285156 7.476562 -6.125 7.875 -5.53125 C 8.269531 -4.9375 8.988281 -4.640625 10.03125 -4.640625 Z M 10.03125 -4.640625 "/></g></g></g><g fill="#25325b" fill-opacity="1"><g transform="translate(234.831635, 186.854245)"><g><path d="M 6.46875 0.328125 C 4.425781 0.328125 2.71875 -0.375 1.34375 -1.78125 C -0.0195312 -3.1875 -0.703125 -5.378906 -0.703125 -8.359375 C -0.703125 -11.023438 -0.171875 -13.820312 0.890625 -16.75 C 1.953125 -19.6875 3.535156 -22.171875 5.640625 -24.203125 C 7.742188 -26.234375 10.253906 -27.25 13.171875 -27.25 C 14.640625 -27.25 15.734375 -26.992188 16.453125 -26.484375 C 17.171875 -25.984375 17.53125 -25.320312 17.53125 -24.5 L 17.53125 -24.28125 L 20.171875 -36.6875 L 28.15625 -37.765625 L 21.953125 -8.625 C 21.816406 -8.09375 21.75 -7.519531 21.75 -6.90625 C 21.75 -6.1875 21.914062 -5.671875 22.25 -5.359375 C 22.59375 -5.054688 23.160156 -4.90625 23.953125 -4.90625 C 24.960938 -4.90625 25.832031 -5.335938 26.5625 -6.203125 C 27.300781 -7.066406 27.890625 -8.21875 28.328125 -9.65625 L 30.59375 -9.65625 C 28.394531 -3.21875 24.78125 0 19.75 0 C 18.269531 0 17.070312 -0.394531 16.15625 -1.1875 C 15.238281 -1.976562 14.671875 -3.128906 14.453125 -4.640625 C 13.523438 -3.203125 12.40625 -2.015625 11.09375 -1.078125 C 9.78125 -0.140625 8.238281 0.328125 6.46875 0.328125 Z M 9.984375 -4.90625 C 10.847656 -4.90625 11.71875 -5.300781 12.59375 -6.09375 C 13.476562 -6.882812 14.082031 -7.984375 14.40625 -9.390625 L 14.40625 -9.65625 L 17.046875 -22.015625 C 16.722656 -23.273438 15.988281 -23.90625 14.84375 -23.90625 C 13.394531 -23.90625 12.09375 -23.066406 10.9375 -21.390625 C 9.789062 -19.722656 8.894531 -17.707031 8.25 -15.34375 C 7.601562 -12.988281 7.28125 -10.914062 7.28125 -9.125 C 7.28125 -7.320312 7.539062 -6.164062 8.0625 -5.65625 C 8.582031 -5.15625 9.222656 -4.90625 9.984375 -4.90625 Z M 9.984375 -4.90625 "/></g></g></g><g fill="#25325b" fill-opacity="1"><g transform="translate(263.157196, 186.854245)"><g><path d="M 7.71875 0.328125 C 5.050781 0.328125 2.976562 -0.363281 1.5 -1.75 C 0.03125 -3.132812 -0.703125 -5.300781 -0.703125 -8.25 C -0.703125 -10.738281 -0.21875 -13.472656 0.75 -16.453125 C 1.726562 -19.441406 3.3125 -22.023438 5.5 -24.203125 C 7.695312 -26.378906 10.484375 -27.46875 13.859375 -27.46875 C 17.816406 -27.46875 19.796875 -25.738281 19.796875 -22.28125 C 19.796875 -20.269531 19.21875 -18.414062 18.0625 -16.71875 C 16.914062 -15.03125 15.390625 -13.671875 13.484375 -12.640625 C 11.578125 -11.617188 9.546875 -11.039062 7.390625 -10.90625 C 7.316406 -9.820312 7.28125 -9.097656 7.28125 -8.734375 C 7.28125 -6.972656 7.585938 -5.773438 8.203125 -5.140625 C 8.816406 -4.515625 9.804688 -4.203125 11.171875 -4.203125 C 13.109375 -4.203125 14.769531 -4.648438 16.15625 -5.546875 C 17.539062 -6.453125 19.0625 -7.820312 20.71875 -9.65625 L 22.546875 -9.65625 C 18.554688 -3 13.613281 0.328125 7.71875 0.328125 Z M 7.828125 -13.484375 C 9.148438 -13.554688 10.414062 -14.023438 11.625 -14.890625 C 12.832031 -15.753906 13.800781 -16.847656 14.53125 -18.171875 C 15.269531 -19.503906 15.640625 -20.910156 15.640625 -22.390625 C 15.640625 -23.867188 15.191406 -24.609375 14.296875 -24.609375 C 13.003906 -24.609375 11.734375 -23.472656 10.484375 -21.203125 C 9.242188 -18.929688 8.359375 -16.359375 7.828125 -13.484375 Z M 7.828125 -13.484375 "/></g></g></g></svg>