<?xml version="1.0" encoding="utf-8"?>
<!-- Generator: Adobe Illustrator 19.0.0, SVG Export Plug-In . SVG Version: 6.00 Build 0)  -->
<svg version="1.1" id="Calque_1" xmlns="http://www.w3.org/2000/svg" xmlns:xlink="http://www.w3.org/1999/xlink" x="0px" y="0px"
	 viewBox="0 0 751.7 175.9" style="enable-background:new 0 0 751.7 175.9;" xml:space="preserve">
<style type="text/css">
	.st0{fill:#3665f3;}
	.st1{fill:#A434F0;}
</style>
<g id="XMLID_3_">
	<g id="XMLID_59_">
		<path id="XMLID_60_" class="st0" d="M35.1,141.1c-10.2,0-17.9-3.4-23-10.1c-5.2-6.8-7.8-16.2-7.8-28.5c0-7.2,0.9-13.8,2.6-20
			C8.6,76.3,11,70.9,14,66.4c3-4.6,6.5-8.1,10.6-10.7c4.1-2.6,8.5-3.9,13.3-3.9c5.4,0,9.7,1.7,13,5.1c3.3,3.4,5.6,7.8,7,13.2H59
			c-0.9-6.6-2.7-12.6-5.4-18c-2.7-5.4-5.8-10.3-9.3-14.6c-3.5-4.3-7-8.1-10.5-11.3c-3.6-3.2-6.5-5.9-8.9-8h28.2
			c8.1,7.9,14,16.6,17.9,26.3c3.9,9.7,5.8,21.2,5.8,34.5c0,8.7-0.8,16.8-2.5,24.3c-1.7,7.6-4.2,14.1-7.7,19.7
			c-3.5,5.6-7.8,10-13,13.2C48.4,139.5,42.2,141.1,35.1,141.1z M36.3,122.5c4.5,0,8.1-1.5,10.7-4.4c2.6-2.9,4.4-6.7,5.3-11.3
			l1.9-9.8c0.2-0.8,0.3-1.7,0.4-2.7c0.1-1.1,0.1-2.1,0.1-3c0-3.7-1.1-6.6-3.2-8.6c-2.1-2-5-3-8.6-3c-4.5,0-8.1,1.5-10.7,4.4
			c-2.6,2.9-4.3,6.7-5.2,11.3l-1.9,9.8c-0.2,0.8-0.3,1.7-0.4,2.7c-0.1,1.1-0.1,2.1-0.1,3c0,3.7,1,6.6,3.1,8.6
			C29.8,121.5,32.6,122.5,36.3,122.5z"/>
		<path id="XMLID_63_" class="st0" d="M99.8,136.3c-3.9,0-7.1-1.1-9.4-3.2c-2.4-2.1-3.5-4.9-3.5-8.4c0-1,0.1-2.2,0.4-3.6l12.1-60.5
			h20.2l-12,59.3h8.5l-3.2,16.3H99.8z M94.9,31.7h40L132,46.3H92L94.9,31.7z"/>
		<path id="XMLID_66_" class="st0" d="M124.7,136.3l15.1-75.6H160l-3.5,17.6h0.9c2.8-6,6.1-10.7,9.9-14.1c3.8-3.5,8.6-5.2,14.4-5.2
			c5.7,0,10,1.7,13,5.1c3,3.4,4.5,8.1,4.6,14.2h0.7c2.8-5.7,6.1-10.3,10.1-13.9c3.9-3.6,8.9-5.4,15-5.4c5.6,0,9.8,1.7,12.7,5.1
			c2.9,3.4,4.4,8.1,4.4,14c0,2.2-0.2,4.4-0.5,6.5c-0.3,2.2-0.7,4.3-1.2,6.5l-5.8,28.9h7.6l-3.2,16.3h-13.1c-3.8,0-6.8-1-8.9-3
			c-2.1-2-3.2-4.6-3.2-8c0-0.9,0-1.7,0.1-2.4c0.1-0.7,0.2-1.3,0.3-1.7l5.9-30c0.3-1.3,0.6-2.7,0.8-4c0.2-1.3,0.4-2.6,0.4-3.9
			c0-2.3-0.5-4.2-1.5-5.5c-1-1.4-2.6-2.1-4.8-2.1c-2.2,0-4.3,0.6-6.3,1.9c-2,1.3-3.8,2.9-5.5,4.8c-1.6,1.9-3.1,4.2-4.3,6.9
			c-1.2,2.7-2.1,5.3-2.6,7.9l-7.8,38.9h-20.2l8.9-44.9c0.3-1.3,0.5-2.7,0.7-4c0.2-1.3,0.3-2.6,0.3-3.7c0-2.4-0.5-4.3-1.5-5.7
			c-1-1.4-2.8-2.1-5.3-2.1c-2.5,0-4.7,0.6-6.7,1.9c-2,1.3-3.8,3-5.4,5c-3.5,4.2-5.8,9.1-6.9,14.7l-7.8,38.9H124.7z"/>
		<path id="XMLID_68_" class="st0" d="M310.9,136.3c-3.6,0-6.7-1-9.1-2.9c-2.4-1.9-3.6-4.7-3.6-8.2c0-0.8,0-1.6,0.1-2.4
			c0.1-0.9,0.2-1.5,0.3-1.9l0.4-2.2h-0.9c-3,6.1-6.3,10.9-10.1,14.3s-8.6,5-14.5,5c-3.6,0-6.6-0.6-9.1-1.9c-2.5-1.3-4.6-3.1-6.3-5.5
			c-1.6-2.4-2.8-5.1-3.6-8.4c-0.8-3.2-1.2-6.7-1.2-10.4c0-8.1,0.9-15.3,2.8-21.8c1.9-6.5,4.4-12,7.6-16.6s6.9-8.2,11.2-10.7
			c4.3-2.5,8.8-3.7,13.6-3.7c5.3,0,9.6,1.4,13,4.3c3.4,2.9,5.4,6.4,5.8,10.5h0.7l2.6-13.1h20.2l-12,59.3h8.5l-3.2,16.3H310.9z
			 M283.5,121.5c2.6,0,4.9-0.7,7.1-2c2.1-1.3,3.9-3,5.5-4.9c1.6-1.9,3-4.2,4.2-6.8c1.2-2.6,2.1-5.4,2.7-8.1l2.3-11.5
			c0.8-3.5,0-6.5-2.2-8.9c-2.2-2.4-5.4-3.6-9.6-3.6c-8.7,0-14.3,5.6-16.6,16.8l-2,10.1c-0.2,1.1-0.4,2.4-0.6,4
			c-0.2,1.6-0.3,3-0.3,4.2c0,3.4,0.8,6,2.5,7.9C278.2,120.6,280.6,121.5,283.5,121.5z"/>
		<path id="XMLID_71_" class="st0" d="M341.9,95.9c2.5-12.5,7-21.7,13.4-27.8c6.4-6,14.3-9.1,23.5-9.1c9.9,0,17.4,2.6,22.5,7.7
			c5.1,5.1,7.6,12.7,7.6,22.7c0,7-0.8,13.5-2.5,19.4c-1.7,6-4,11.1-7,15.4c-3,4.3-6.5,7.7-10.4,10.2c-4,2.4-8.3,3.7-13,3.7
			c-5.4,0-9.7-1.4-13-4.3c-3.3-2.9-5.1-6.4-5.6-10.5h-0.7l-8.4,41.9H328L341.9,95.9z M370.4,121.8c4.5,0,7.9-1.3,10.2-4
			c2.3-2.7,4-6.9,5.1-12.5l2.7-13.5c0.1-0.5,0.2-1.1,0.3-1.9c0.1-0.8,0.1-1.6,0.1-2.6c0-3.6-0.9-6.6-2.7-8.7
			c-1.8-2.2-4.5-3.2-8.1-3.2c-7.9,0-12.9,5.5-15.1,16.6l-3,15.1c-0.4,2-0.5,3.9-0.4,5.7c0.1,1.8,0.6,3.4,1.4,4.8
			c0.8,1.4,2,2.5,3.5,3.2C366,121.4,368,121.8,370.4,121.8z"/>
		<path id="XMLID_74_" class="st0" d="M415.3,136.3l15.1-75.6h20.2l-3.7,18.9h1c0.8-2,1.8-4.2,3.2-6.4c1.4-2.3,3-4.3,4.9-6.1
			c1.9-1.8,4-3.3,6.5-4.5c2.4-1.2,5.1-1.8,8-1.8h3.6l-4,19.6h-5c-6.4,0-11.3,1.2-14.7,3.5c-3.4,2.4-5.7,6.6-6.9,12.7l-7.9,39.7
			H415.3z"/>
		<path id="XMLID_76_" class="st0" d="M503.9,138.1c-9.3,0-16.7-2.8-22-8.3c-5.4-5.5-8.1-13.3-8.1-23.3c0-6.8,1-13.1,3-18.9
			c2-5.8,4.7-10.8,8.1-15c3.5-4.2,7.6-7.5,12.3-9.9c4.8-2.4,10-3.6,15.6-3.6c9.3,0,16.7,2.8,22,8.3c5.4,5.5,8.1,13.3,8.1,23.3
			c0,6.8-1,13.1-3,18.9c-2,5.8-4.7,10.8-8.1,15c-3.5,4.2-7.6,7.5-12.4,9.9C514.6,136.9,509.4,138.1,503.9,138.1z M504.6,121.8
			c7.9,0,12.9-5.5,15.1-16.6l2.7-13.5c0.1-0.5,0.2-1.1,0.3-1.9c0.1-0.8,0.1-1.6,0.1-2.6c0-3.6-0.9-6.6-2.7-8.7
			c-1.8-2.2-4.5-3.2-8.1-3.2c-7.9,0-12.9,5.5-15.1,16.6l-2.7,13.5c-0.1,0.5-0.2,1.1-0.3,1.9c-0.1,0.8-0.1,1.6-0.1,2.6
			c0,3.6,0.9,6.6,2.7,8.7C498.3,120.7,501,121.8,504.6,121.8z"/>
		<path id="XMLID_79_" class="st0" d="M549.4,136.3l15.1-75.6h20.2l-3.5,17.6h0.9c2.8-6,6.1-10.7,9.9-14.1c3.8-3.5,8.6-5.2,14.4-5.2
			c5.7,0,10,1.7,13,5.1c3,3.4,4.5,8.1,4.6,14.2h0.7c2.8-5.7,6.1-10.3,10.1-13.9c3.9-3.6,8.9-5.4,15-5.4c5.6,0,9.8,1.7,12.7,5.1
			c2.9,3.4,4.4,8.1,4.4,14c0,2.2-0.2,4.4-0.5,6.5c-0.3,2.2-0.7,4.3-1.2,6.5l-5.8,28.9h7.6l-3.2,16.3h-13.1c-3.8,0-6.8-1-8.9-3
			c-2.1-2-3.2-4.6-3.2-8c0-0.9,0-1.7,0.1-2.4c0.1-0.7,0.2-1.3,0.3-1.7l5.9-30c0.3-1.3,0.6-2.7,0.8-4c0.2-1.3,0.4-2.6,0.4-3.9
			c0-2.3-0.5-4.2-1.5-5.5c-1-1.4-2.6-2.1-4.8-2.1c-2.2,0-4.3,0.6-6.3,1.9c-2,1.3-3.8,2.9-5.5,4.8c-1.6,1.9-3.1,4.2-4.3,6.9
			c-1.2,2.7-2.1,5.3-2.6,7.9l-7.8,38.9h-20.2l8.9-44.9c0.3-1.3,0.5-2.7,0.7-4c0.2-1.3,0.3-2.6,0.3-3.7c0-2.4-0.5-4.3-1.5-5.7
			c-1-1.4-2.8-2.1-5.3-2.1c-2.5,0-4.7,0.6-6.7,1.9c-2,1.3-3.8,3-5.4,5c-3.5,4.2-5.8,9.1-6.9,14.7l-7.8,38.9H549.4z"/>
		<path id="XMLID_81_" class="st0" d="M708.2,138.1c-9.3,0-16.7-2.8-22-8.3c-5.4-5.5-8.1-13.3-8.1-23.3c0-6.8,1-13.1,3-18.9
			c2-5.8,4.7-10.8,8.1-15c3.5-4.2,7.6-7.5,12.3-9.9c4.8-2.4,10-3.6,15.6-3.6c9.3,0,16.7,2.8,22,8.3c5.4,5.5,8.1,13.3,8.1,23.3
			c0,6.8-1,13.1-3,18.9c-2,5.8-4.7,10.8-8.1,15c-3.5,4.2-7.6,7.5-12.4,9.9C718.9,136.9,713.8,138.1,708.2,138.1z M708.9,121.8
			c7.9,0,12.9-5.5,15.1-16.6l2.7-13.5c0.1-0.5,0.2-1.1,0.3-1.9c0.1-0.8,0.1-1.6,0.1-2.6c0-3.6-0.9-6.6-2.7-8.7
			c-1.8-2.2-4.5-3.2-8.1-3.2c-7.9,0-12.9,5.5-15.1,16.6l-2.7,13.5c-0.1,0.5-0.2,1.1-0.3,1.9c-0.1,0.8-0.1,1.6-0.1,2.6
			c0,3.6,0.9,6.6,2.7,8.7C702.7,120.7,705.4,121.8,708.9,121.8z"/>
	</g>
	<g id="XMLID_56_">
		<path id="XMLID_57_" class="st1" d="M380.3,52.8c-5.4,0-9.2-1-11.4-3c-2.2-2-3.2-4.5-3.2-7.6c0-0.3,0.1-1,0.2-2.1
			c0.1-1.1,0.4-2.8,0.8-5c0.4-1.9,1-3.7,1.8-5.4c0.8-1.7,2-3.2,3.4-4.4c1.4-1.3,3.2-2.3,5.3-3c2.1-0.7,4.5-1.1,7.3-1.1
			c5.4,0,9.2,1,11.4,2.9c2.2,1.9,3.3,4.5,3.3,7.6c0,1-0.1,2.1-0.4,3.3c-0.2,1.2-0.5,2.5-0.8,3.9c-0.8,4.2-2.6,7.5-5.3,10
			C389.9,51.5,385.8,52.8,380.3,52.8z"/>
	</g>
</g>
</svg>
